<svg version="1.0" xmlns="http://www.w3.org/2000/svg" width="512.000000pt" height="512.000000pt" viewBox="0 0 512.000000 512.000000" preserveAspectRatio="xMidYMid meet">
  <style>
    path {
      fill: black;
      @media (prefers-color-scheme: dark) { fill: white; }
    }
  </style>
  <g transform="translate(0.000000,512.000000) scale(0.100000,-0.100000)" stroke="none">
    <path d="M2147 4955 c-66 -18 -121 -56 -140 -98 -20 -42 -21 -118 -3 -170 71 -197 368 -458 801 -702 143 -81 253 -165 356 -271 282 -293 433 -663 431 -1054 -1 -226 -49 -419 -154 -623 -209 -406 -575 -649 -1018 -674 -499 -28 -970 292 -1100 747 -31 107 -38 308 -15 421 34 172 106 315 218 435 360 386 968 324 1188 -121 136 -275 50 -590 -203 -742 -291 -175 -679 37 -656 359 8 106 50 181 146 261 42 36 107 96 144 134 96 100 102 149 21 167 -60 13 -181 -15 -283 -65 -122 -60 -241 -180 -297 -299 -23 -47 -46 -107 -53 -135 -16 -70 -14 -228 5 -300 63 -243 281 -453 561 -543 170 -55 376 -56 534 -3 289 97 514 343 615 674 30 98 55 257 55 347 0 284 -121 570 -330 780 -190 192 -426 322 -698 387 -144 34 -411 43 -550 19 -645 -112 -1194 -691 -1313 -1384 -91 -532 56 -1103 392 -1525 313 -393 804 -687 1345 -806 235 -52 596 -70 829 -42 508 63 915 265 1218 606 379 426 606 953 657 1525 56 630 -132 1247 -528 1740 -387 480 -970 820 -1592 929 -230 40 -489 52 -583 26z"/>
  </g>
</svg>
